<svg width="19" height="19" viewBox="0 0 19 19" fill="none" xmlns="http://www.w3.org/2000/svg">
<g id="schedule_FILL0_wght400_GRAD0_opsz24 1">
<path id="Vector" d="M12.1124 13.2208L13.2208 12.1125L10.2916 9.18334V5.54168H8.70825V9.81668L12.1124 13.2208ZM9.49992 17.4167C8.40478 17.4167 7.37561 17.2089 6.41242 16.7932C5.44922 16.3776 4.61138 15.8136 3.89888 15.1011C3.18638 14.3886 2.62231 13.5507 2.20669 12.5875C1.79106 11.6243 1.58325 10.5951 1.58325 9.50001C1.58325 8.40487 1.79106 7.37571 2.20669 6.41251C2.62231 5.44932 3.18638 4.61147 3.89888 3.89897C4.61138 3.18647 5.44922 2.62241 6.41242 2.20678C7.37561 1.79116 8.40478 1.58334 9.49992 1.58334C10.5951 1.58334 11.6242 1.79116 12.5874 2.20678C13.5506 2.62241 14.3885 3.18647 15.101 3.89897C15.8135 4.61147 16.3775 5.44932 16.7931 6.41251C17.2088 7.37571 17.4166 8.40487 17.4166 9.50001C17.4166 10.5951 17.2088 11.6243 16.7931 12.5875C16.3775 13.5507 15.8135 14.3886 15.101 15.1011C14.3885 15.8136 13.5506 16.3776 12.5874 16.7932C11.6242 17.2089 10.5951 17.4167 9.49992 17.4167ZM9.49992 15.8333C11.2548 15.8333 12.7491 15.2165 13.9827 13.9828C15.2164 12.7491 15.8333 11.2549 15.8333 9.50001C15.8333 7.74515 15.2164 6.25088 13.9827 5.0172C12.7491 3.78352 11.2548 3.16668 9.49992 3.16668C7.74506 3.16668 6.25079 3.78352 5.01711 5.0172C3.78343 6.25088 3.16659 7.74515 3.16659 9.50001C3.16659 11.2549 3.78343 12.7491 5.01711 13.9828C6.25079 15.2165 7.74506 15.8333 9.49992 15.8333Z" fill="#959595"/>
</g>
</svg>
