<svg width="20" height="19" viewBox="0 0 20 19" fill="none" xmlns="http://www.w3.org/2000/svg">
<g id="location_on_FILL0_wght400_GRAD0_opsz24 1">
<path id="Vector" d="M10.2935 9.50001C10.729 9.50001 11.1017 9.34498 11.4118 9.03491C11.7218 8.72484 11.8769 8.35209 11.8769 7.91668C11.8769 7.48126 11.7218 7.10852 11.4118 6.79845C11.1017 6.48838 10.729 6.33334 10.2935 6.33334C9.85812 6.33334 9.48538 6.48838 9.17531 6.79845C8.86524 7.10852 8.71021 7.48126 8.71021 7.91668C8.71021 8.35209 8.86524 8.72484 9.17531 9.03491C9.48538 9.34498 9.85812 9.50001 10.2935 9.50001ZM10.2935 15.3188C11.9033 13.841 13.0974 12.4984 13.8758 11.2912C14.6543 10.0839 15.0435 9.01182 15.0435 8.07501C15.0435 6.63682 14.585 5.45921 13.668 4.5422C12.751 3.62518 11.6262 3.16668 10.2935 3.16668C8.9609 3.16668 7.83607 3.62518 6.91906 4.5422C6.00205 5.45921 5.54354 6.63682 5.54354 8.07501C5.54354 9.01182 5.93277 10.0839 6.71125 11.2912C7.48972 12.4984 8.68382 13.841 10.2935 15.3188ZM10.2935 17.4167C8.16923 15.609 6.5826 13.93 5.53364 12.3797C4.48468 10.8294 3.96021 9.39446 3.96021 8.07501C3.96021 6.09584 4.59684 4.51911 5.8701 3.3448C7.14336 2.1705 8.61784 1.58334 10.2935 1.58334C11.9692 1.58334 13.4437 2.1705 14.717 3.3448C15.9902 4.51911 16.6269 6.09584 16.6269 8.07501C16.6269 9.39446 16.1024 10.8294 15.0534 12.3797C14.0045 13.93 12.4178 15.609 10.2935 17.4167Z" fill="#959595"/>
</g>
</svg>
