<svg width="33" height="33" viewBox="0 0 33 33" fill="none" xmlns="http://www.w3.org/2000/svg">
<g id="mingcute:right-line" clip-path="url(#clip0_392_1625)">
<g id="Group">
<path id="Vector" fill-rule="evenodd" clip-rule="evenodd" d="M21.5972 15.5279C21.855 15.7857 21.9998 16.1354 21.9998 16.5C21.9998 16.8646 21.855 17.2143 21.5972 17.4721L13.8189 25.2505C13.692 25.3818 13.5403 25.4866 13.3725 25.5586C13.2048 25.6307 13.0244 25.6686 12.8418 25.6702C12.6592 25.6718 12.4782 25.637 12.3092 25.5679C12.1402 25.4987 11.9867 25.3966 11.8576 25.2675C11.7285 25.1384 11.6264 24.9849 11.5572 24.8159C11.4881 24.647 11.4533 24.4659 11.4549 24.2833C11.4565 24.1008 11.4944 23.9203 11.5665 23.7526C11.6385 23.5848 11.7433 23.4331 11.8746 23.3063L18.6809 16.5L11.8746 9.69375C11.6241 9.43443 11.4855 9.0871 11.4887 8.72658C11.4918 8.36606 11.6364 8.02119 11.8914 7.76625C12.1463 7.51132 12.4912 7.36671 12.8517 7.36358C13.2122 7.36044 13.5595 7.49904 13.8189 7.7495L21.5972 15.5279Z" fill="black"/>
</g>
</g>
<defs>
<clipPath id="clip0_392_1625">
<rect width="33" height="33" fill="white"/>
</clipPath>
</defs>
</svg>
