<svg width="24" height="19" viewBox="0 0 24 19" fill="none" xmlns="http://www.w3.org/2000/svg">
<g id="confirmation_number_FILL0_wght400_GRAD0_opsz24 1">
<path id="Vector" d="M12.1199 13.4583C12.3922 13.4583 12.6205 13.3825 12.8047 13.2307C12.9889 13.079 13.081 12.891 13.081 12.6667C13.081 12.4424 12.9889 12.2543 12.8047 12.1026C12.6205 11.9509 12.3922 11.875 12.1199 11.875C11.8476 11.875 11.6193 11.9509 11.4351 12.1026C11.2509 12.2543 11.1588 12.4424 11.1588 12.6667C11.1588 12.891 11.2509 13.079 11.4351 13.2307C11.6193 13.3825 11.8476 13.4583 12.1199 13.4583ZM12.1199 10.2917C12.3922 10.2917 12.6205 10.2158 12.8047 10.0641C12.9889 9.91232 13.081 9.7243 13.081 9.49999C13.081 9.27568 12.9889 9.08766 12.8047 8.93593C12.6205 8.78419 12.3922 8.70832 12.1199 8.70832C11.8476 8.70832 11.6193 8.78419 11.4351 8.93593C11.2509 9.08766 11.1588 9.27568 11.1588 9.49999C11.1588 9.7243 11.2509 9.91232 11.4351 10.0641C11.6193 10.2158 11.8476 10.2917 12.1199 10.2917ZM12.1199 7.12499C12.3922 7.12499 12.6205 7.04912 12.8047 6.89739C12.9889 6.74565 13.081 6.55763 13.081 6.33332C13.081 6.10902 12.9889 5.921 12.8047 5.76926C12.6205 5.61752 12.3922 5.54166 12.1199 5.54166C11.8476 5.54166 11.6193 5.61752 11.4351 5.76926C11.2509 5.921 11.1588 6.10902 11.1588 6.33332C11.1588 6.55763 11.2509 6.74565 11.4351 6.89739C11.6193 7.04912 11.8476 7.12499 12.1199 7.12499ZM19.8087 15.8333H4.43111C3.90251 15.8333 3.44999 15.6783 3.07356 15.3682C2.69713 15.0581 2.50891 14.6854 2.50891 14.25V11.0833C3.03752 11.0833 3.49004 10.9283 3.86647 10.6182C4.2429 10.3081 4.43111 9.93541 4.43111 9.49999C4.43111 9.06457 4.2429 8.69183 3.86647 8.38176C3.49004 8.07169 3.03752 7.91666 2.50891 7.91666V4.74999C2.50891 4.31457 2.69713 3.94183 3.07356 3.63176C3.44999 3.32169 3.90251 3.16666 4.43111 3.16666H19.8087C20.3373 3.16666 20.7899 3.32169 21.1663 3.63176C21.5427 3.94183 21.7309 4.31457 21.7309 4.74999V7.91666C21.2023 7.91666 20.7498 8.07169 20.3734 8.38176C19.9969 8.69183 19.8087 9.06457 19.8087 9.49999C19.8087 9.93541 19.9969 10.3081 20.3734 10.6182C20.7498 10.9283 21.2023 11.0833 21.7309 11.0833V14.25C21.7309 14.6854 21.5427 15.0581 21.1663 15.3682C20.7899 15.6783 20.3373 15.8333 19.8087 15.8333ZM19.8087 14.25V12.2312C19.216 11.941 18.7475 11.555 18.4031 11.0734C18.0587 10.5918 17.8865 10.0674 17.8865 9.49999C17.8865 8.93263 18.0587 8.40815 18.4031 7.92655C18.7475 7.44495 19.216 7.05902 19.8087 6.76874V4.74999H4.43111V6.76874C5.02379 7.05902 5.49233 7.44495 5.83672 7.92655C6.18112 8.40815 6.35332 8.93263 6.35332 9.49999C6.35332 10.0674 6.18112 10.5918 5.83672 11.0734C5.49233 11.555 5.02379 11.941 4.43111 12.2312V14.25H19.8087Z" fill="#959595"/>
</g>
</svg>
