<svg width="60" height="60" viewBox="0 0 60 60" fill="none" xmlns="http://www.w3.org/2000/svg">
<path id="Vector" d="M30 14.4206C21.4095 14.4206 14.4206 21.4095 14.4206 30C14.4206 38.5905 21.4095 45.5733 30 45.5733C38.5905 45.5733 45.5733 38.5844 45.5733 30C45.5794 21.4095 38.5905 14.4206 30 14.4206ZM30 39.634C24.6855 39.634 20.366 35.3145 20.366 30C20.366 24.6855 24.6855 20.366 30 20.366C35.3145 20.366 39.634 24.6855 39.634 30C39.634 35.3145 35.3145 39.634 30 39.634ZM42.7341 0H17.2659C7.74722 0 0 7.74722 0 17.2659V42.7341C0 52.2528 7.74722 60 17.2659 60H42.7341C52.2528 60 60 52.2528 60 42.7341V17.2659C60 7.74722 52.2588 0 42.7341 0ZM54.0607 42.7341C54.0607 48.9767 48.9767 54.0546 42.7341 54.0546H17.2659C11.0233 54.0546 5.9454 48.9767 5.9454 42.7341V17.2659C5.9454 11.0233 11.0233 5.9454 17.2659 5.9454H42.7341C48.9767 5.9454 54.0546 11.0233 54.0546 17.2659V42.7341H54.0607ZM45.7917 9.91911C43.547 9.91911 41.7149 11.7452 41.7149 13.996C41.7149 16.2406 43.541 18.0728 45.7917 18.0728C48.0364 18.0728 49.8686 16.2467 49.8686 13.996C49.8686 11.7452 48.0364 9.91911 45.7917 9.91911Z" fill="white"/>
</svg>
