<svg width="50" height="50" viewBox="0 0 50 50" fill="none" xmlns="http://www.w3.org/2000/svg">
<path id="Vector" d="M42.6702 7.21549C40.3736 4.95315 37.7 3.18213 34.7292 1.94241C31.6385 0.65128 28.3649 0 24.9943 0C21.6236 0 18.3501 0.65128 15.2594 1.9367C12.2829 3.17642 9.60923 4.95315 7.31833 7.20978C5.02171 9.47212 3.22212 12.1058 1.95955 15.0308C0.656993 18.0702 0 21.2923 0 24.6172C0 27.9422 0.662706 31.1643 1.96527 34.2036C3.22783 37.1401 5.02742 39.7681 7.32404 42.0247C9.62066 44.287 12.2943 46.058 15.2651 47.2978C18.3501 48.5832 21.6236 49.2345 25 49.2345C28.3764 49.2345 31.6442 48.5832 34.7349 47.2978C37.7114 46.058 40.3851 44.2813 42.676 42.0247C44.9726 39.7623 46.7722 37.1287 48.0347 34.2036C49.343 31.1643 50 27.9422 50 24.6172C50 21.2923 49.3373 18.0702 48.0347 15.0308C46.7664 12.1001 44.9669 9.46641 42.6702 7.21549ZM45.0411 22.612H39.6938C39.2653 22.612 38.9054 22.2749 38.8825 21.8521C38.7169 19.3156 38.3227 16.8761 37.7228 14.5967C37.6143 14.191 37.8485 13.7626 38.2541 13.6312C39.2253 13.3112 40.1508 12.9513 41.0192 12.5628C41.4077 12.3915 41.9276 12.5057 42.1675 12.8542C44.0242 15.4765 45.2754 18.5443 45.7267 21.8579C45.7781 22.2749 45.4639 22.612 45.0411 22.612ZM27.7137 5.62729C27.9365 5.7644 28.1593 5.91293 28.3764 6.08432C29.559 6.9984 30.6844 8.39808 31.6328 10.1234C31.7128 10.2662 31.787 10.409 31.8613 10.5576C31.987 10.7975 31.7413 11.0546 31.3186 11.1175C30.176 11.2888 28.9991 11.4088 27.7994 11.4888C27.3766 11.5174 27.0281 11.1917 27.0281 10.7747V6.02719C27.0338 5.61015 27.348 5.41019 27.7137 5.62729ZM21.6008 6.09004C21.8236 5.91865 22.0464 5.7644 22.2692 5.62729C22.6291 5.40448 22.949 5.60443 22.949 6.02719V10.7804C22.949 11.1974 22.6063 11.5231 22.1778 11.5002C20.9781 11.426 19.7955 11.3003 18.6529 11.1289C18.2301 11.066 17.9902 10.809 18.1159 10.569C18.1901 10.4205 18.2701 10.2776 18.3444 10.1348C19.2984 8.39237 20.4239 6.9984 21.6008 6.09004ZM16.2306 15.5564C16.3391 15.1508 16.7733 14.888 17.1904 14.9623C18.8071 15.2365 20.4753 15.4193 22.1835 15.5222C22.6063 15.545 22.9548 15.8992 22.9548 16.322V21.8521C22.9548 22.2692 22.612 22.612 22.1835 22.612H15.9221C15.4936 22.612 15.168 22.2749 15.1965 21.8521C15.3279 20.0297 15.5907 18.2473 15.9849 16.5448C16.0649 16.2077 16.1449 15.8821 16.2306 15.5564ZM22.9548 27.3937V32.9239C22.9548 33.341 22.612 33.6952 22.1835 33.718C20.4867 33.8151 18.83 34.0037 17.2189 34.2722C16.8019 34.3407 16.362 34.0836 16.2534 33.678C16.1563 33.3295 16.0706 32.9753 15.9849 32.6097C15.5964 30.9358 15.3336 29.1876 15.2022 27.388C15.1737 26.971 15.4993 26.6282 15.9221 26.6282H22.1778C22.6063 26.6339 22.9548 26.971 22.9548 27.3937ZM22.9548 38.4655V43.133C22.9548 43.55 22.6405 43.7557 22.2749 43.5329C22.0521 43.3958 21.8293 43.2415 21.6065 43.0702C20.4239 42.1561 19.2984 40.7564 18.3501 39.0311C18.2758 38.8997 18.2073 38.7683 18.1387 38.6369C18.0245 38.4198 18.2758 38.1798 18.6986 38.117C19.8298 37.9513 20.9952 37.8256 22.1835 37.7514C22.612 37.7228 22.9548 38.0484 22.9548 38.4655ZM28.3821 43.0644C28.1593 43.2358 27.9422 43.3844 27.7194 43.5215C27.3595 43.7443 27.0395 43.5443 27.0395 43.1216V38.4598C27.0395 38.0427 27.3823 37.7171 27.8108 37.7457C28.9991 37.8199 30.1588 37.9399 31.29 38.1056C31.7128 38.1684 31.9584 38.4027 31.8499 38.6255C31.7813 38.7569 31.7127 38.894 31.6385 39.0254C30.6844 40.7621 29.559 42.1561 28.3821 43.0644ZM33.7294 33.678C33.6209 34.0836 33.181 34.3464 32.7639 34.2722C31.1586 33.9979 29.5018 33.8151 27.8051 33.718C27.3823 33.6952 27.0338 33.341 27.0338 32.9182V27.388C27.0338 26.971 27.3766 26.6282 27.8051 26.6282H34.0551C34.4835 26.6282 34.8092 26.9653 34.7806 27.388C34.6492 29.1819 34.3864 30.9301 33.9979 32.6097C33.9122 32.9753 33.8266 33.3295 33.7294 33.678ZM27.0338 21.8521V16.3163C27.0338 15.8992 27.3766 15.545 27.8051 15.5222C29.5075 15.425 31.1757 15.2365 32.7925 14.9623C33.2095 14.888 33.6495 15.1508 33.758 15.5564C33.8437 15.8821 33.9237 16.2077 34.0037 16.5448C34.3979 18.2473 34.6606 20.024 34.792 21.8521C34.8206 22.2692 34.495 22.612 34.0665 22.612H27.8108C27.3823 22.612 27.0338 22.2749 27.0338 21.8521ZM38.077 9.4207C37.6885 9.56924 37.2886 9.71206 36.8773 9.84346C36.4717 9.97486 36.0032 9.75777 35.8261 9.38071C35.6376 8.9808 35.4376 8.59803 35.2319 8.22098C34.9063 7.62683 34.5635 7.06696 34.2093 6.53565C33.9751 6.18716 34.0836 6.05576 34.4607 6.24429C35.7975 6.9127 37.0544 7.71824 38.2084 8.64945C38.534 8.91225 38.4769 9.27217 38.077 9.4207ZM15.7793 6.54136C15.425 7.06696 15.0823 7.62683 14.7566 8.22098C14.551 8.59803 14.351 8.98652 14.1625 9.38071C13.9797 9.75777 13.5112 9.97486 13.1113 9.84346C12.7 9.71206 12.3 9.56924 11.9116 9.4207C11.5117 9.27217 11.4545 8.91225 11.7859 8.64374C12.9342 7.71824 14.1853 6.90699 15.5222 6.23857C15.9049 6.05576 16.0192 6.19287 15.7793 6.54136ZM8.97509 12.5628C9.84346 12.9513 10.7633 13.3112 11.7402 13.6255C12.1458 13.7569 12.38 14.1853 12.2715 14.591C11.6659 16.8704 11.2717 19.3156 11.1117 21.8464C11.0832 22.2635 10.7233 22.6063 10.3005 22.6063H4.95887C4.53039 22.6063 4.22189 22.2692 4.27902 21.8521C4.73035 18.5386 5.9872 15.4707 7.83821 12.8485C8.07244 12.5057 8.58661 12.3915 8.97509 12.5628ZM4.94744 26.6339H10.2948C10.7233 26.6339 11.0832 26.971 11.1117 27.3937C11.2831 29.9246 11.683 32.3697 12.2886 34.6435C12.3972 35.0491 12.1629 35.4719 11.7573 35.609C10.7747 35.9289 9.84346 36.2888 8.96938 36.683C8.5809 36.8601 8.06673 36.7402 7.82107 36.3917C5.97006 33.7637 4.71892 30.7016 4.2676 27.388C4.21047 26.971 4.52468 26.6339 4.94744 26.6339ZM11.9116 39.8195C12.3115 39.6652 12.7171 39.5224 13.1399 39.3853C13.5455 39.2539 14.0139 39.471 14.1968 39.848C14.3739 40.2194 14.5624 40.5793 14.7566 40.9335C15.1108 41.5791 15.4822 42.1846 15.8707 42.7502C16.1106 43.0987 16.0021 43.2301 15.6193 43.0416C14.2482 42.3617 12.9685 41.5391 11.7859 40.5907C11.4545 40.3279 11.5117 39.968 11.9116 39.8195ZM34.1122 42.7559C34.5007 42.1904 34.872 41.5848 35.2262 40.9392C35.4205 40.585 35.609 40.2251 35.7861 39.848C35.9689 39.471 36.4374 39.2539 36.843 39.3853C37.2658 39.5224 37.6771 39.6652 38.077 39.8195C38.4712 39.9737 38.534 40.3279 38.2027 40.5964C37.0201 41.5391 35.7347 42.3617 34.3636 43.0473C33.9808 43.2358 33.8723 43.1044 34.1122 42.7559ZM41.0135 36.6773C40.1337 36.2831 39.2025 35.9232 38.2198 35.6033C37.8142 35.4719 37.58 35.0434 37.6885 34.6378C38.2998 32.364 38.694 29.9189 38.8654 27.388C38.894 26.971 39.2539 26.6282 39.6824 26.6282H45.0354C45.4639 26.6282 45.7724 26.9653 45.721 27.3823C45.2696 30.6958 44.0242 33.7637 42.1675 36.386C41.9161 36.7345 41.402 36.8487 41.0135 36.6773Z" fill="white"/>
</svg>
